<?xml version="1.0" encoding="UTF-8"?>
<svg xmlns="http://www.w3.org/2000/svg" viewBox="0 0 80 80" fill="none" aria-hidden="true">
  <defs>
    <linearGradient id="ais-bg" x1="10" y1="8" x2="70" y2="72" gradientUnits="userSpaceOnUse">
      <stop stop-color="#fff8f0"/>
      <stop offset="1" stop-color="#f5e6d8"/>
    </linearGradient>
    <linearGradient id="ais-sun" x1="52" y1="12" x2="68" y2="28" gradientUnits="userSpaceOnUse">
      <stop stop-color="#e8c47a"/>
      <stop offset="1" stop-color="#c9863a"/>
    </linearGradient>
    <filter id="ais-sh" x="-20%" y="-20%" width="140%" height="140%">
      <feDropShadow dx="0" dy="2" stdDeviation="2" flood-color="#8f2d32" flood-opacity="0.15"/>
    </filter>
  </defs>
  <rect width="80" height="80" rx="14" fill="url(#ais-bg)"/>
  <circle cx="60" cy="20" r="11" fill="url(#ais-sun)" opacity="0.85"/>
  <path d="M60 10v4M60 30v4M50 20h4M66 20h4" stroke="#c9863a" stroke-width="1.5" stroke-linecap="round" opacity="0.6"/>
  <g filter="url(#ais-sh)">
    <ellipse cx="28" cy="38" rx="11" ry="12" fill="#4d5f4f" opacity="0.15"/>
    <circle cx="28" cy="32" r="9" fill="#fdfbf7" stroke="#4d5f4f" stroke-width="1.5"/>
    <path d="M18 52c3-8 8-11 10-11s7 3 10 11" stroke="#4d5f4f" stroke-width="1.5" stroke-linecap="round"/>
    <ellipse cx="52" cy="40" rx="11" ry="12" fill="#8f2d32" opacity="0.12"/>
    <circle cx="52" cy="34" r="9" fill="#fdfbf7" stroke="#8f2d32" stroke-width="1.5"/>
    <path d="M42 54c3-8 8-11 10-11s7 3 10 11" stroke="#8f2d32" stroke-width="1.5" stroke-linecap="round"/>
  </g>
  <rect x="30" y="14" width="22" height="14" rx="7" fill="#fdfbf7" stroke="#d9d0c4" stroke-width="1.2"/>
  <path d="M34 21h6M40 21h4" stroke="#8f2d32" stroke-width="1.8" stroke-linecap="round"/>
  <circle cx="36" cy="21" r="1.2" fill="#8f2d32"/>
  <circle cx="44" cy="21" r="1.2" fill="#8f2d32"/>
</svg>
