<?xml version="1.0" encoding="UTF-8"?>
<svg xmlns="http://www.w3.org/2000/svg" viewBox="0 0 80 80" fill="none" aria-hidden="true">
  <defs>
    <linearGradient id="bun-bg" x1="8" y1="6" x2="72" y2="74" gradientUnits="userSpaceOnUse">
      <stop stop-color="#f5f0ff"/>
      <stop offset="1" stop-color="#e8e4f0"/>
    </linearGradient>
    <linearGradient id="bun-slot" x1="30" y1="34" x2="50" y2="46" gradientUnits="userSpaceOnUse">
      <stop stop-color="#fff4e0"/>
      <stop offset="1" stop-color="#e8c47a"/>
    </linearGradient>
    <filter id="bun-glow" x="-50%" y="-50%" width="200%" height="200%">
      <feGaussianBlur stdDeviation="2" result="b"/>
      <feMerge><feMergeNode in="b"/><feMergeNode in="SourceGraphic"/></feMerge>
    </filter>
    <filter id="bun-sh" x="-20%" y="-20%" width="140%" height="140%">
      <feDropShadow dx="0" dy="2" stdDeviation="2" flood-color="#3a4a58" flood-opacity="0.14"/>
    </filter>
  </defs>
  <rect width="80" height="80" rx="14" fill="url(#bun-bg)"/>
  <g filter="url(#bun-sh)">
    <rect x="12" y="22" width="56" height="40" rx="6" fill="#fdfbf7" stroke="#3a4a58" stroke-width="1.5"/>
    <path d="M20 34h10M34 34h22M20 44h14M38 44h22M20 54h18M42 54h18" stroke="#d9d0c4" stroke-width="1.5" stroke-linecap="round"/>
    <g filter="url(#bun-glow)">
      <rect x="30" y="36" width="20" height="12" rx="3" fill="url(#bun-slot)" stroke="#9a7b2d" stroke-width="1.5"/>
    </g>
    <path d="M40 30v4M40 50v4" stroke="#9a7b2d" stroke-width="1.2" stroke-linecap="round" opacity="0.5"/>
    <circle cx="40" cy="42" r="2" fill="#8f2d32"/>
  </g>
  <path d="M54 18l6 3-3 6" stroke="#5a6b7a" stroke-width="1.5" stroke-linecap="round" stroke-linejoin="round" opacity="0.5"/>
  <circle cx="18" cy="58" r="3" fill="#3a4a58" opacity="0.2"/>
</svg>
