<?xml version="1.0" encoding="UTF-8"?>
<svg xmlns="http://www.w3.org/2000/svg" viewBox="0 0 80 80" fill="none" aria-hidden="true">
  <defs>
    <linearGradient id="kanji-bg" x1="8" y1="6" x2="72" y2="74" gradientUnits="userSpaceOnUse">
      <stop stop-color="#f7f2ea"/>
      <stop offset="1" stop-color="#dce8dc"/>
    </linearGradient>
    <linearGradient id="kanji-card" x1="24" y1="18" x2="56" y2="62" gradientUnits="userSpaceOnUse">
      <stop stop-color="#fdfbf7"/>
      <stop offset="1" stop-color="#ebe4d8"/>
    </linearGradient>
    <filter id="kanji-sh" x="-20%" y="-20%" width="140%" height="140%">
      <feDropShadow dx="0" dy="2" stdDeviation="2" flood-color="#1f1a16" flood-opacity="0.12"/>
    </filter>
  </defs>
  <rect width="80" height="80" rx="14" fill="url(#kanji-bg)"/>
  <circle cx="62" cy="18" r="10" fill="#4d5f4f" opacity="0.12"/>
  <circle cx="16" cy="64" r="8" fill="#9a7b2d" opacity="0.15"/>
  <g filter="url(#kanji-sh)">
    <rect x="22" y="20" width="36" height="44" rx="5" fill="url(#kanji-card)" stroke="#4d5f4f" stroke-width="1.5"/>
    <rect x="28" y="14" width="36" height="44" rx="5" fill="#fdfbf7" stroke="#4d5f4f" stroke-width="1.5" opacity="0.85"/>
    <path d="M38 28h16M38 36h12M38 44h14" stroke="#c4b8a8" stroke-width="1.5" stroke-linecap="round"/>
    <path d="M32 32h8v20h-8z" fill="#4d5f4f" opacity="0.9"/>
    <path d="M34 36h4v3h-4zm0 6h4v3h-4zm0 6h4v3h-4z" fill="#fdfbf7"/>
  </g>
  <path d="M54 52l4 4 8-8" stroke="#9a7b2d" stroke-width="2" stroke-linecap="round" stroke-linejoin="round"/>
</svg>
