<?xml version="1.0" encoding="UTF-8"?>
<svg xmlns="http://www.w3.org/2000/svg" viewBox="0 0 80 80" fill="none" aria-hidden="true">
  <defs>
    <linearGradient id="yomi-bg" x1="8" y1="6" x2="72" y2="74" gradientUnits="userSpaceOnUse">
      <stop stop-color="#f0f4f8"/>
      <stop offset="1" stop-color="#dce4ec"/>
    </linearGradient>
    <linearGradient id="yomi-book" x1="18" y1="24" x2="62" y2="68" gradientUnits="userSpaceOnUse">
      <stop stop-color="#fdfbf7"/>
      <stop offset="1" stop-color="#e8e1d6"/>
    </linearGradient>
    <linearGradient id="yomi-ruby" x1="24" y1="14" x2="56" y2="22" gradientUnits="userSpaceOnUse">
      <stop stop-color="#b84d52"/>
      <stop offset="1" stop-color="#8f2d32"/>
    </linearGradient>
    <filter id="yomi-sh" x="-20%" y="-20%" width="140%" height="140%">
      <feDropShadow dx="0" dy="2" stdDeviation="2.5" flood-color="#3a4a58" flood-opacity="0.18"/>
    </filter>
  </defs>
  <rect width="80" height="80" rx="14" fill="url(#yomi-bg)"/>
  <path d="M12 58c8-4 16-6 28-6s20 2 28 6" stroke="#3a4a58" stroke-width="1" opacity="0.15" stroke-linecap="round"/>
  <g filter="url(#yomi-sh)">
    <path d="M20 26h40v38H20z" fill="url(#yomi-book)" stroke="#3a4a58" stroke-width="1.5" rx="4"/>
    <path d="M20 26h8v38h-8z" fill="#3a4a58" opacity="0.85"/>
    <rect x="26" y="14" width="8" height="5" rx="1.5" fill="url(#yomi-ruby)"/>
    <rect x="36" y="12" width="10" height="5" rx="1.5" fill="url(#yomi-ruby)"/>
    <rect x="48" y="14" width="7" height="5" rx="1.5" fill="url(#yomi-ruby)"/>
    <path d="M30 38h28M30 46h20M30 54h24" stroke="#5a6b7a" stroke-width="1.5" stroke-linecap="round"/>
    <circle cx="54" cy="42" r="9" fill="#fdfbf7" stroke="#8f2d32" stroke-width="1.5"/>
    <path d="M51 42h6M54 39v6" stroke="#8f2d32" stroke-width="1.8" stroke-linecap="round"/>
  </g>
  <path d="M58 18l3-2 2 4" stroke="#9a7b2d" stroke-width="1.5" stroke-linecap="round" stroke-linejoin="round" opacity="0.8"/>
</svg>
